<svg xmlns="http://www.w3.org/2000/svg" viewBox="0 0 800 600" role="img" aria-label="XpertOne workspace placeholder">
  <defs>
    <linearGradient id="bg" x1="0" y1="0" x2="1" y2="1">
      <stop offset="0%" stop-color="#f8fafc"/>
      <stop offset="100%" stop-color="#e0f2fe"/>
    </linearGradient>
  </defs>
  <rect width="800" height="600" fill="url(#bg)"/>
  <rect x="0" y="0" width="800" height="48" fill="#ffffff"/>
  <circle cx="28" cy="24" r="6" fill="#cbd5e1"/><circle cx="48" cy="24" r="6" fill="#cbd5e1"/><circle cx="68" cy="24" r="6" fill="#cbd5e1"/>
  <rect x="100" y="16" width="180" height="16" rx="8" fill="#e2e8f0"/>
  <rect x="0" y="48" width="180" height="552" fill="#ffffff"/>
  <rect x="20" y="76" width="120" height="12" rx="6" fill="#0ea5e9"/>
  <rect x="20" y="108" width="140" height="10" rx="5" fill="#e2e8f0"/>
  <rect x="20" y="136" width="110" height="10" rx="5" fill="#e2e8f0"/>
  <rect x="20" y="164" width="130" height="10" rx="5" fill="#e2e8f0"/>
  <rect x="20" y="192" width="100" height="10" rx="5" fill="#e2e8f0"/>
  <rect x="208" y="80" width="176" height="96" rx="12" fill="#ffffff"/>
  <rect x="228" y="104" width="80" height="12" rx="6" fill="#e2e8f0"/>
  <rect x="228" y="130" width="120" height="22" rx="6" fill="#0ea5e9"/>
  <rect x="408" y="80" width="176" height="96" rx="12" fill="#ffffff"/>
  <rect x="428" y="104" width="80" height="12" rx="6" fill="#e2e8f0"/>
  <rect x="428" y="130" width="100" height="22" rx="6" fill="#7dd3fc"/>
  <rect x="608" y="80" width="168" height="96" rx="12" fill="#ffffff"/>
  <rect x="628" y="104" width="80" height="12" rx="6" fill="#e2e8f0"/>
  <rect x="628" y="130" width="90" height="22" rx="6" fill="#bae6fd"/>
  <rect x="208" y="200" width="568" height="220" rx="12" fill="#ffffff"/>
  <rect x="232" y="228" width="140" height="12" rx="6" fill="#e2e8f0"/>
  <rect x="232" y="352" width="48" height="44" rx="6" fill="#bae6fd"/>
  <rect x="300" y="320" width="48" height="76" rx="6" fill="#7dd3fc"/>
  <rect x="368" y="286" width="48" height="110" rx="6" fill="#0ea5e9"/>
  <rect x="436" y="330" width="48" height="66" rx="6" fill="#7dd3fc"/>
  <rect x="504" y="268" width="48" height="128" rx="6" fill="#0ea5e9"/>
  <rect x="572" y="306" width="48" height="90" rx="6" fill="#7dd3fc"/>
  <rect x="640" y="340" width="48" height="56" rx="6" fill="#bae6fd"/>
  <rect x="208" y="444" width="568" height="132" rx="12" fill="#ffffff"/>
  <rect x="232" y="470" width="200" height="10" rx="5" fill="#e2e8f0"/>
  <rect x="232" y="498" width="520" height="10" rx="5" fill="#f0f9ff"/>
  <rect x="232" y="526" width="480" height="10" rx="5" fill="#f0f9ff"/>
  <rect x="232" y="554" width="500" height="10" rx="5" fill="#f0f9ff"/>
</svg>
